# xmcd
#
# Track frame offsets: 
#        183
#        11963
#        31323
#        45478
#        60645
#        74223
#        87758
#        104700
#        115123
#        125295
#        136173
#        146153
#        156453
#        166580
#        178893
#        192563
#        202573
#        214480
#        224845
#        236288
#        249698
#        260465
#        270073
#        281835
#        291048
#
# Disc length: 4043 seconds
#
# Revision: 5
# Processed by: cddbd v1.5.2PL0 Copyright (c) Steve Scherf et al.
# Submitted via: ExactAudioCopyFreeDBPlugin 1.0
#
DISCID=850fc919
DTITLE=Various Artist - Let's Go To Nashville
DYEAR=1995
DGENRE=Country
TTITLE0=Roger Miller - Walking in the sunshine
TTITLE1=Bobby Bare - Me and Bobby McGee
TTITLE2=Lacy J. Dalton - 16th Avenue
TTITLE3=Lee Greenwood - Dixie Road
TTITLE4=Ray Price - Heartaches by the number
TTITLE5=Bill Anderson - Before I met you
TTITLE6=Ferlin Husky - Giddyup go
TTITLE7=Dave Dudley - Six Days on the Road
TTITLE8=Jack Reno - Hitchin' a ride
TTITLE9=Justin Tubb - Take a letter Miss Gray
TTITLE10=Skeeter Davis - I can't stay mad at you
TTITLE11=Warner Mack - The bridge washed out
TTITLE12=Glen Campbell - Gentle on my mind
TTITLE13=Moe Bandy - San Antonio rose
TTITLE14=Johnny Paycheck - She's mine
TTITLE15=Bob Luman - When you say love
TTITLE16=George Hamilton - Why don't they understand
TTITLE17=Johnny Russell - Jambalaya
TTITLE18=Charlie Louvin - I don't love you anymore
TTITLE19=Claude Gray - Family Bible
TTITLE20=Carl Belew - Hello out there
TTITLE21=Wynn Stewart - Love's gonna happen to me
TTITLE22=Tommy Collins - Watcha gonna do now
TTITLE23=Roy Drusky - Peel me a nanner
TTITLE24=Sandford Clark - They call me country
EXTD=YEAR: 1995
EXTT0=
EXTT1=
EXTT2=
EXTT3=
EXTT4=
EXTT5=
EXTT6=
EXTT7=
EXTT8=
EXTT9=
EXTT10=
EXTT11=
EXTT12=
EXTT13=
EXTT14=
EXTT15=
EXTT16=
EXTT17=
EXTT18=
EXTT19=
EXTT20=
EXTT21=
EXTT22=
EXTT23=
EXTT24=
PLAYORDER=
